<?xml version="1.0" encoding="UTF-8"?><svg id="a" xmlns="http://www.w3.org/2000/svg" viewBox="0 0 324.33 1106.85"><defs><style>.b{fill:#e41e2c;}</style></defs><path class="b" d="M108.52.15l106.67-.15c7.52,1.42,13.07,6.16,15.77,13.23,4.41,11.56-4.02,11.03-3,19.92,1.23,10.69,12.29,23.04,11.88,36.28-.29,9.58-10.04,8.03-11.09,16.97-1.78,15.16,1.36,36.37,1.92,52.13,3.11,87.51,38.03,143.9,64.85,223.14,4.56,13.47,10.89,31.2,4.5,44.57,15.2,57.06,24.17,119.09,19.74,178.16-.74,9.92-4.11,22.43-4.08,32.02,0,4.26,3.59,11.53,4.08,17.01,2.7,30.31-7.72,65.09-11.93,95.04-8.57,60.99-20.31,123.64-6.56,184.46,4.16,18.43,11.08,35.85,16.01,53.99,21.17,77.92-4.85,121.91-84.12,134.88-49.75,8.14-150.19,9.05-194.68-17.07-72.67-42.66-21.92-127.42-11.99-187.6,10.51-63.63-5.88-132.6-14.59-195.83-2.75-19.94-8.76-48.26-6.99-67.75.53-5.78,3.71-12.31,3.96-17.11.51-10.15-3.64-27.51-4.13-38.98-2.01-47.53,3.05-94.33,12.32-140.76,1.53-7.68,7.38-24.33,7.45-30.47.02-2.29-2.24-4.27-2.66-6.87-3.38-20.99,16.87-60.63,24.69-81.19,20.63-54.26,42.91-105.92,47.24-164.76,1.41-19.09,3.75-47.57,2.06-66.04-1.06-11.55-12.82-7.18-10.96-21.87,1.28-10.14,11.12-24.26,11.9-32.17.64-6.47-4.72-10.36-4.99-12.92-.82-7.82,8.76-19.22,16.74-20.25Z"/></svg>