<?xml version="1.0" encoding="UTF-8"?><svg id="a" xmlns="http://www.w3.org/2000/svg" viewBox="0 0 1735 1388"><defs><style>.b{fill:#c5212f;}.c{fill:#fdfcfc;}</style></defs><path class="b" d="M0,913V0h1735v491c-6.01.8-12.62.45-18.49,1.01-112.34,10.65-232.16,45.09-320.52,117.47-20.85,17.08-31.93,30.14-42.84,55.16-.91,2.1-3.84,8.26-4.16,9.85-.3,1.48.04,1.78,1.5,1.5,19.75-11.87,39.25-24.06,60.17-33.84,100.77-47.07,217.55-56.4,324.35-24.15v770H0v-260c40.86,5.88,81.54,13.83,122.51,18.99,146.97,18.49,294.9,17.21,439.74-16.24,184.84-42.69,354.92-133.35,506.75-244.25,1.02-.66,1.24-1.85,1.05-2.97-.1-.56-7.05-5.01-9.07-7-3.49-3.43-6.5-10.31-11.23-10.33-24.57,10.67-49.18,21.31-74.24,30.81-270.08,102.37-559.63,118.55-841.16,53.14-45.27-10.52-89.8-24.13-134.35-37.15ZM509,293c-.22-10.27,4.37-20.02,5.23-30.27l1.17-1.83,57.94-1.06c2.78-.87,4.92-12.84,2.16-12.84h-72l-22.5,109h74l2-13h-57.5c-1.39,0-1.57-3.11-1.47-4.39.38-4.58,4.75-24.16,6.25-28.83.39-1.22.62-2.45,1.71-3.29l53.32-.68c3.28-.98,3.57-8.08,3.59-11.14l-1.39-1.66h-52.5ZM688,247l-12.87.13-2.72,14.92,12.65.52,2.94-15.57ZM633.87,355.87c4.43-21.09,11.59-42.65,12.01-64.25-2.87-23.8-33.87-18.39-47.38-6.63l-.49-8-11.02.49-16.57,77.56,12.58.95c3.3-14.18,4.91-29.71,8.88-43.62,3.73-13.08,12.63-25.42,27.63-25.45,5.9-.01,13.16,2.86,13.43,9.66.29,7.29-3.69,21.76-5.22,29.63-.79,4.05-7.11,28.39-5.72,29.79l11.87-.13ZM726.76,275.26c-45.07,5.78-54.09,82.49-5.25,82.74,50.32.26,63.95-90.27,5.25-82.74ZM669.13,277.13l-18.82,89.68c-3.44,10.03-10.39,5.4-12.83,8.17-1.21,1.38-2.15,7.54-1.04,9.08,1.97,2.73,14.57.98,17.48-.64,4.53-2.53,7.55-8.35,8.81-13.19l18.85-92.29-12.44-.81ZM796,336.01l-8.17-57.34c-1.07-3.22-10.84-1.07-13.84-1.67l13.06,77.55c-3.27,7.24-10.65,22.3-19.6,22.5-2.93.07-6.74-3.04-7.96-1.06-.74,1.19-1.8,7.76-1.04,9.01,20.05,9.82,30.78-11.23,39.37-25.68,15.11-25.42,27.9-52.38,43.4-77.6l.78-4.72-13.52.98-29.41,57.4-3.07.63ZM1623.99,389c-1.87-.42-2.37,1.03-3.5,1.99-4.81,4.07-9.86,11.92-14.45,16.55-37.32,37.75-85.7,70.31-141.03,68.97-18.76,18.87-34.6,40.9-47.02,64.47.43.6,12.8,2.03,14.55,2.05,76.76.9,142.93-46.64,176.83-113.16,6.5-12.75,12.23-26.72,14.61-40.87ZM413.35,480.34c24.75-25.73,32.98-83.73-13.96-89.24-43.06-5.05-102.83,32.12-134.87,58.91-81.16,67.87-176.79,216.46-156.29,326.24,20.25,108.42,108.06,115.53,200.02,94.49,75.68-17.32,203.65-72.41,268.4-8.41,2.96,2.92,14.78,20.14,16.02,20.54,2.24.73,9.7-3.77,12.81-4.91,41.87-15.36,94.04-9.64,136.76.27,5.54,1.29,36.14,12,38.75,9.74-6.29-13.44-17.44-25.67-28.37-35.61-54.69-49.72-127.01-70.26-200.17-67.43-79.73,3.09-151.74,37.69-228.2,54.8-60.31,13.5-125.66,6.42-138.14-65.37-11.24-64.66,32.43-158.02,66.47-212.3,26.43-42.15,80.73-113.34,124.71-136.29,10.26-5.36,36.05-12.88,33.12,6.32-21.44,2.03-41.28,29.18-35.16,50.12,1.87,6.4,10.42,12.86,17.16,11.73,7.87-1.33,15.71-8.2,20.92-13.62ZM1143.59,558.59c25.71-35.96,41.36-80.08,39.85-124.65,1.87-2.67,21.84-2.19,25.93-1.81,54.57,5.02,96.85,49.03,140.66,77.33l6.52-.41,41.45-53.51c-25.41-16.14-51.61-35.6-79.02-48.02-35.9-16.28-71.51-19.02-110.23-11.26-12.96,2.6-25.34,8.07-38.26,10.83-9.2-4.82-16.97-11.75-28.1-12.98-70.42-7.77-152.42,59.77-196.74,109.01-56.44,62.71-125.3,182.95-129.69,268.35-4,77.79,43.97,134.14,124.73,103.73,62.19-23.42,121.93-111.99,129.19-176.81,4.35-38.81-12.05-74.41-56.88-62.88-48,12.34-84.97,83.38-90.87,129.13-1.06,8.22-2.46,28.34-1.11,35.87.23,1.32.96,2.85,2.48,2.5,18.28-23.26,40.64-41.19,66.59-55.42,2.24-4.27,1.38-9.41,2.2-13.8,3.61-19.41,10.96-40.78,24.22-55.78,10.2-11.55,28.66-19.57,30.49,2.53,3.99,48.06-40.63,122.83-80.45,148.51-32.08,20.69-70.51,17.46-75.42-26.63-5.74-51.5,29.59-132.41,54.08-177.71,33.09-61.24,103.32-158.03,165.15-190.85,7.74-4.11,16.74-8.59,25.67-7.82-3.23,5.88-9.61,8.67-14.47,13.02-29.8,26.66-63.67,69.24-70.26,109.74-2.91,17.92-.38,41.89,17.83,50.63,27.68,13.29,59.99-20.52,74.49-40.81ZM1518.62,431.63c8.83-12.11,6.59-29.65-8.39-35.36-34.8-13.26-77.74,33.43-98.74,56.71-54.58,60.53-110.73,152.55-142.17,227.83-5.12,12.27-8.72,27.38-14.13,38.87-2.73,5.8-10.88,8.58-16.99,10.01-10.95,2.57-9.07-1.41-6.91-10.9,5.27-23.12,17.14-58.54-5.36-77.22-34.4-28.57-90.41,27.01-110.34,52.52-28.89,36.97-79.53,129.51-49.02,173.85,23.79,34.58,66.96,4.59,87.96-16.92,26-26.64,43.76-60.16,61.43-92.57,8.5-3.2,18.09-3.82,27.05-5.44-6.72,34.9-25.61,82.51-3.84,115.34,5.16,7.77,14.03,13.52,23.45,14.55,22.53,2.47,44.89-21.71,59.42-36.36,2.86-2.89,3.77-7.51,8.97-6.53.47,16.67,4.55,36.57,23,41.5,13.29,3.56,28.15-3.51,38.91-11.09,4.93-3.47,16.99-16.25,21.57-16.44,2.21-.09,1.25.09,1.5,1.52,1.22,7.19.93,12.01,5.58,18.45,9.44,13.08,25.57,8.59,38.12,3.24,33.13-14.12,64.12-54.68,81.49-85.51,2.5-4.43,17.09-32.67,16.88-35.17-.32-3.9-3.94-1.51-6.51-1.46-4.11.09-12.02-.98-15.11.88-2.43,1.46-13.31,21.49-16.2,25.8-10.01,14.89-20.56,29.34-35.16,39.89-1.76,1.27-3.34,6.25-5.13-1.08l87.49-178.6.44-4.82c-2.27-3.57-46.39-1.61-53.35-2.1-5.34,1.01-5.45,9.31-10.05,8.93-1-.08-7.4-5.05-9.81-6.12-36.19-16.05-77.33,27.35-97.08,53.25-29.49,38.67-49.56,87.59-83.2,122.8-23.89,25-23.65,2.29-20.13-19.13,13.14-80,76.29-204.13,122.93-271.07,20.22-29.02,53.36-75.03,80.44-96.51,3.85-3.05,8.42-7.22,13.38-6.17,3.25,3.31-8.83,15.14-9.62,17.95-.33,1.17-.6,1.77.61,2.56,4.22,3.98,14.12-6.44,16.63-9.88ZM572,705v27.5c0,8.71,7.92,21.1,15.7,25.3,18.94,10.23,42.12-4.1,57.22-15.39,3.63-2.71,7.36-8.27,11.57-8.44,2.57-.11,1.33,4.52,1.96,7.08,6.75,27.15,31.38,23.86,51.59,13.49,36.12-18.52,69.17-66.7,88.13-101.87,3.3-6.12,7.55-12.95,8.83-19.67h-22.5c-7.43,10.41-13.26,21.9-20.69,32.31-5.34,7.49-24.19,31.46-31.86,34.14-2.04.71-3.86.68-5.96.54l.22-3.27,89.31-177.68.34-4.91c-1.56-2.49-49.51-.43-56.38-1.13-3.96.75-4.26,7.91-6.98,8.12-3.87.29-4.59-2.34-7.45-3.67-35.43-16.45-69.75,11.33-92.57,36.55-46.54,51.42-66.32,118.73-129.62,156.38-19.72,11.73-36.01,6.4-33.74-18.74,3.28-36.31,49.33-117.91,77.91-141.06,5.9-4.78,14.26-9.33,21.86-6.46l-.87,5.43c-13.87,2.99-25.36,14.91-29.8,28.2-9.2,27.53,15.34,38.4,34.1,18.15,17.41-18.79,31.98-58.32,7.59-77.29-26.98-20.98-64.99,3.15-85.93,21.9-21.99,19.7-39.27,50.73-68.01,59.99-5.29,1.71-10.34,3.14-15.98,2.52.74-10.38,4.38-20.07,5.86-30.65,4.6-32.87-5.07-64.79-44.39-61.39-58.63,5.07-118.15,107-133.17,157.83-11.24,38.04-10.78,96.85,44.1,90.1,37.99-4.68,78.01-63.8,96.42-94.58,6.41-10.72,11.54-22.24,18.13-32.87,3.49-3.26,22.43-3.2,28.06-4.43,1.21,1.2-10.3,27.66-11.71,31.79-10.45,30.72-19.1,77.1,15.69,95.73,39.8,21.31,87.54-20.1,115.67-44.87,2.17-1.91,2.49-5.8,7.35-4.65ZM812.5,575h55c3.34,0,10.61-12.57,12.32-15.68,7.26-13.22,13.19-28.46,20.03-42.02.21-3.83-13.23-2.08-16.39-2.25-12.32-.68-26.59-2.2-38.91,0-4.95.88-9.28,8.25-11.72,12.28-5.29,8.78-11.38,20.93-15.69,30.31-1.39,3.02-8.59,16.15-4.64,17.36Z"/><path class="c" d="M0,913c44.55,13.02,89.08,26.64,134.35,37.15,281.53,65.41,571.09,49.23,841.16-53.14,25.06-9.5,49.67-20.14,74.24-30.81,4.73.02,7.74,6.9,11.23,10.33,2.02,1.99,8.98,6.44,9.07,7,.19,1.11-.03,2.3-1.05,2.97-151.82,110.9-321.9,201.57-506.75,244.25-144.84,33.45-292.77,34.73-439.74,16.24-40.97-5.16-81.65-13.11-122.51-18.99v-215Z"/><path class="c" d="M1735,491v127c-106.8-32.25-223.58-22.92-324.35,24.15-20.92,9.77-40.42,21.97-60.17,33.84-1.46.28-1.8-.02-1.5-1.5.32-1.58,3.24-7.75,4.16-9.85,10.91-25.02,21.99-38.08,42.84-55.16,88.36-72.39,208.18-106.82,320.52-117.47,5.87-.56,12.48-.21,18.49-1.01Z"/><path class="c" d="M1518.62,431.63c-2.51,3.44-12.41,13.86-16.63,9.88-1.21-.79-.94-1.39-.61-2.56.8-2.82,12.88-14.64,9.62-17.95-4.95-1.05-9.53,3.12-13.38,6.17-27.08,21.48-60.22,67.49-80.44,96.51-46.64,66.94-109.79,191.07-122.93,271.07-3.52,21.42-3.76,44.13,20.13,19.13,33.64-35.21,53.71-84.13,83.2-122.8,19.75-25.9,60.89-69.3,97.08-53.25,2.4,1.07,8.81,6.04,9.81,6.12,4.6.38,4.72-7.92,10.05-8.93,6.96.49,51.09-1.48,53.35,2.1l-.44,4.82-87.49,178.6c1.78,7.33,3.37,2.35,5.13,1.08,14.6-10.56,25.15-25,35.16-39.89,2.9-4.31,13.77-24.34,16.2-25.8,3.1-1.86,11-.8,15.11-.88,2.57-.05,6.19-2.45,6.51,1.46.2,2.5-14.39,30.73-16.88,35.17-17.37,30.83-48.36,71.39-81.49,85.51-12.55,5.35-28.68,9.83-38.12-3.24-4.65-6.44-4.36-11.26-5.58-18.45-.24-1.43.71-1.62-1.5-1.52-4.59.2-16.65,12.97-21.57,16.44-10.76,7.58-25.62,14.64-38.91,11.09-18.46-4.94-22.54-24.83-23-41.5-5.2-.98-6.11,3.65-8.97,6.53-14.53,14.65-36.9,38.83-59.42,36.36-9.42-1.03-18.29-6.77-23.45-14.55-21.77-32.83-2.88-80.44,3.84-115.34-8.96,1.61-18.55,2.23-27.05,5.44-17.67,32.42-35.42,65.94-61.43,92.57-21,21.51-64.17,51.5-87.96,16.92-30.51-44.34,20.14-136.89,49.02-173.85,19.93-25.5,75.94-81.09,110.34-52.52,22.5,18.69,10.63,54.1,5.36,77.22-2.16,9.5-4.04,13.47,6.91,10.9,6.11-1.43,14.26-4.21,16.99-10.01,5.4-11.49,9-26.61,14.13-38.87,31.44-75.28,87.59-167.3,142.17-227.83,21-23.29,63.94-69.97,98.74-56.71,14.98,5.71,17.22,23.25,8.39,35.36ZM1198.71,666.21c-7.81,1.76-16.26,14.36-18.25,21.75-4.88,18.02,4.39,33.26,22.02,38.06,3.59-.37,6.15-8.71,7.23-11.8,3.88-11.17,8.93-30.45,4.03-41.45-3.06-6.87-7.73-8.19-15.03-6.55ZM1414.65,818.65c20.73-20.21,46.31-73.38,58.74-100.76,4.15-9.15,14.23-29.28,16.12-37.88,3.42-15.55-4.38-13.28-13.84-6.84-29.54,20.12-67.01,93.34-76.18,127.82-1.6,6.01-3.7,15.21-.94,20.95,3.49,7.24,12.51.2,16.09-3.29ZM1191.86,751.12c-12.34-6.3-25.29-15.43-33.84-26.66l-1.5-.53c-.9-.04-1.43.52-2.07,1-2.49,1.87-11.15,18.83-13.18,22.82-7.8,15.37-19.16,39.67-20.3,56.7-1.33,19.85,8.35,28.98,25.51,15.51,14.31-11.23,38.67-46.97,44.97-64.02.58-1.58.98-3.17.42-4.82Z"/><path class="c" d="M572,705c-4.86-1.15-5.18,2.74-7.35,4.65-28.13,24.77-75.87,66.18-115.67,44.87-34.79-18.63-26.14-65.01-15.69-95.73,1.4-4.13,12.92-30.59,11.71-31.79-5.63,1.23-24.57,1.17-28.06,4.43-6.6,10.63-11.72,22.14-18.13,32.87-18.4,30.78-58.43,89.91-96.42,94.58-54.88,6.75-55.34-52.06-44.1-90.1,15.02-50.82,74.54-152.76,133.17-157.83,39.33-3.4,48.99,28.52,44.39,61.39-1.48,10.58-5.12,20.26-5.86,30.65,5.64.62,10.7-.82,15.98-2.52,28.74-9.27,46.02-40.3,68.01-59.99,20.93-18.75,58.95-42.88,85.93-21.9,24.39,18.97,9.83,58.5-7.59,77.29-18.77,20.24-43.3,9.37-34.1-18.15,4.44-13.28,15.94-25.21,29.8-28.2l.87-5.43c-7.59-2.87-15.96,1.68-21.86,6.46-28.58,23.15-74.63,104.75-77.91,141.06-2.27,25.14,14.01,30.47,33.74,18.74,63.3-37.64,83.09-104.96,129.62-156.38,22.82-25.22,57.14-53,92.57-36.55,2.85,1.32,3.58,3.96,7.45,3.67,2.73-.21,3.02-7.36,6.98-8.12,6.87.7,54.82-1.36,56.38,1.13l-.34,4.91-89.31,177.68-.22,3.27c2.1.14,3.92.17,5.96-.54,7.66-2.69,26.52-26.65,31.86-34.14,7.43-10.42,13.25-21.91,20.69-32.31h22.5c-1.28,6.72-5.53,13.55-8.83,19.67-18.96,35.18-52.01,83.36-88.13,101.87-20.22,10.36-44.84,13.65-51.59-13.49-.64-2.56.6-7.19-1.96-7.08-4.21.18-7.94,5.73-11.57,8.44-15.1,11.29-38.28,25.63-57.22,15.39-7.77-4.2-15.7-16.59-15.7-25.3v-27.5ZM407.7,544.31c-5.5-3.91-16.67.45-21.19,4.7-10.04,9.47-14.58,24.51-6.92,36.9,3.24,5.24,18.62,18.24,24.75,14.17.79-.53,5.77-15.48,6.38-17.86,2.55-9.85,5.67-23.81.7-33.14-.21-.4-3.48-4.6-3.73-4.77ZM729.74,546.23c-9.81,1.74-34.77,30.93-41.17,39.84-14.92,20.76-52.03,87.19-48.47,111.34,1.82,12.35,14.28,2.33,19.3-2.51,19.04-18.35,43.04-66.17,55.13-90.87,5.05-10.32,21.51-42.56,22.02-52,.1-1.81-.16-5.2-2.19-5.91-1.55-.39-3.08-.16-4.62.11ZM322.28,701.71c3.75,3.16,9.27,2.36,13.39.46,16.52-7.62,45.97-51.46,53.49-68.5,5.15-11.68.41-7.88-7.69-12.64-4.07-2.39-9.34-6.02-12.95-9.05-2.32-1.94-10.71-11.47-12.18-11.78-1.16-.25-2.64.59-3.4,1.53-9.27,11.58-24.56,44.81-29.41,59.32-3.22,9.64-10.08,33.24-1.26,40.67Z"/><path class="c" d="M1143.59,558.59c-14.51,20.29-46.82,54.1-74.49,40.81-18.21-8.74-20.74-32.72-17.83-50.63,6.59-40.5,40.46-83.09,70.26-109.74,4.86-4.35,11.24-7.14,14.47-13.02-8.93-.78-17.93,3.71-25.67,7.82-61.83,32.83-132.06,129.62-165.15,190.85-24.48,45.31-59.81,126.21-54.08,177.71,4.91,44.09,43.34,47.33,75.42,26.63,39.83-25.69,84.45-100.45,80.45-148.51-1.84-22.09-20.29-14.08-30.49-2.53-13.25,15-20.6,36.37-24.22,55.78-.82,4.39.04,9.53-2.2,13.8-25.94,14.23-48.31,32.16-66.59,55.42-1.52.35-2.25-1.18-2.48-2.5-1.34-7.53.05-27.65,1.11-35.87,5.9-45.74,42.87-116.79,90.87-129.13,44.83-11.53,61.23,24.07,56.88,62.88-7.26,64.82-67,153.4-129.19,176.81-80.76,30.41-128.73-25.94-124.73-103.73,4.39-85.4,73.25-205.64,129.69-268.35,44.32-49.24,126.32-116.78,196.74-109.01,11.13,1.23,18.9,8.16,28.1,12.98,12.93-2.76,25.3-8.23,38.26-10.83,38.72-7.76,74.34-5.02,110.23,11.26,27.4,12.43,53.6,31.88,79.02,48.02l-41.45,53.51-6.52.41c-43.81-28.3-86.1-72.31-140.66-77.33-4.09-.38-24.06-.85-25.93,1.81,1.51,44.57-14.14,88.69-39.85,124.65ZM1157.99,444c-14.57,6.73-27.08,18.84-38.01,30.47-18.51,19.7-45.07,59.46-46.01,86.99-.83,24.27,15.58,19.19,29.05,8.05,32.04-26.49,55.3-78.78,56.03-120.06.04-1.99-.66-3.59-1.06-5.45Z"/><path class="c" d="M413.35,480.34c-5.21,5.42-13.05,12.29-20.92,13.62-6.75,1.14-15.29-5.33-17.16-11.73-6.12-20.94,13.71-48.09,35.16-50.12,2.93-19.2-22.86-11.67-33.12-6.32-43.98,22.95-98.28,94.14-124.71,136.29-34.04,54.28-77.71,147.64-66.47,212.3,12.48,71.79,77.83,78.86,138.14,65.37,76.46-17.11,148.47-51.71,228.2-54.8,73.16-2.83,145.49,17.71,200.17,67.43,10.93,9.94,22.08,22.17,28.37,35.61-2.61,2.26-33.21-8.46-38.75-9.74-42.72-9.91-94.89-15.63-136.76-.27-3.11,1.14-10.57,5.64-12.81,4.91-1.24-.41-13.06-17.62-16.02-20.54-64.75-64-192.72-8.91-268.4,8.41-91.96,21.04-179.77,13.93-200.02-94.49-20.5-109.78,75.12-258.37,156.29-326.24,32.04-26.8,91.81-63.97,134.87-58.91,46.93,5.51,38.71,63.51,13.96,89.24Z"/><path class="c" d="M1623.99,389c-2.38,14.16-8.12,28.13-14.61,40.87-33.9,66.52-100.07,114.06-176.83,113.16-1.75-.02-14.12-1.45-14.55-2.05,12.42-23.57,28.26-45.6,47.02-64.47,55.34,1.34,103.71-31.22,141.03-68.97,4.59-4.64,9.63-12.48,14.45-16.55,1.13-.96,1.63-2.41,3.5-1.99Z"/><path class="c" d="M509,293h52.5l1.39,1.66c-.02,3.06-.31,10.17-3.59,11.14l-53.32.68c-1.09.84-1.32,2.08-1.71,3.29-1.5,4.68-5.87,24.26-6.25,28.83-.11,1.28.08,4.39,1.47,4.39h57.5l-2,13h-74l22.5-109h72c2.76,0,.62,11.97-2.16,12.84l-57.94,1.06-1.17,1.83c-.86,10.25-5.45,20-5.23,30.27Z"/><path class="c" d="M812.5,575c-3.95-1.21,3.25-14.34,4.64-17.36,4.31-9.38,10.39-21.53,15.69-30.31,2.43-4.04,6.77-11.4,11.72-12.28,12.33-2.2,26.59-.68,38.91,0,3.16.17,16.6-1.58,16.39,2.25-6.84,13.57-12.77,28.8-20.03,42.02-1.71,3.12-8.98,15.68-12.32,15.68h-55Z"/><path class="c" d="M726.76,275.26c58.69-7.53,45.06,82.99-5.25,82.74-48.84-.25-39.82-76.95,5.25-82.74ZM709.37,341.62c32.91,23.67,61.19-48.53,26.89-54.38-28.5-4.86-44.98,41.37-26.89,54.38Z"/><path class="c" d="M633.87,355.87l-11.87.13c-1.39-1.41,4.93-25.74,5.72-29.79,1.53-7.88,5.51-22.34,5.22-29.63-.27-6.8-7.53-9.68-13.43-9.66-15,.04-23.9,12.38-27.63,25.45-3.97,13.91-5.57,29.44-8.88,43.62l-12.58-.95,16.57-77.56,11.02-.49.49,8c13.51-11.76,44.51-17.17,47.38,6.63-.42,21.6-7.57,43.16-12.01,64.25Z"/><path class="c" d="M796,336.01l3.07-.63,29.41-57.4,13.52-.98-.78,4.72c-15.49,25.22-28.29,52.19-43.4,77.6-8.59,14.46-19.32,35.5-39.37,25.68-.76-1.25.3-7.82,1.04-9.01,1.23-1.98,5.03,1.13,7.96,1.06,8.94-.2,16.33-15.26,19.6-22.5l-13.06-77.55c2.99.61,12.77-1.55,13.84,1.67l8.17,57.34Z"/><path class="c" d="M669.13,277.13l12.44.81-18.85,92.29c-1.26,4.84-4.28,10.67-8.81,13.19-2.91,1.62-15.51,3.37-17.48.64-1.11-1.54-.17-7.7,1.04-9.08,2.44-2.77,9.38,1.86,12.83-8.17l18.82-89.68Z"/><polygon class="c" points="688 247 685.07 262.57 672.42 262.05 675.13 247.13 688 247"/><path class="b" d="M1414.65,818.65c-3.58,3.49-12.61,10.53-16.09,3.29-2.77-5.74-.66-14.94.94-20.95,9.17-34.48,46.63-107.7,76.18-127.82,9.46-6.44,17.26-8.7,13.84,6.84-1.89,8.6-11.97,28.73-16.12,37.88-12.43,27.38-38.01,80.55-58.74,100.76Z"/><path class="b" d="M1191.86,751.12c.57,1.65.17,3.25-.42,4.82-6.3,17.05-30.66,52.8-44.97,64.02-17.16,13.47-26.85,4.33-25.51-15.51,1.14-17.03,12.5-41.33,20.3-56.7,2.03-3.99,10.69-20.95,13.18-22.82.65-.49,1.17-1.05,2.07-1l1.5.53c8.55,11.23,21.5,20.36,33.84,26.66Z"/><path class="b" d="M1198.71,666.21c7.31-1.64,11.97-.32,15.03,6.55,4.9,11-.15,30.28-4.03,41.45-1.08,3.09-3.64,11.44-7.23,11.8-17.63-4.8-26.9-20.04-22.02-38.06,2-7.39,10.45-19.99,18.25-21.75Z"/><path class="b" d="M729.74,546.23c1.54-.27,3.06-.5,4.62-.11,2.03.71,2.29,4.1,2.19,5.91-.51,9.44-16.97,41.68-22.02,52-12.09,24.7-36.09,72.52-55.13,90.87-5.02,4.83-17.48,14.86-19.3,2.51-3.56-24.15,33.55-90.58,48.47-111.34,6.4-8.91,31.37-38.09,41.17-39.84Z"/><path class="b" d="M322.28,701.71c-8.82-7.43-1.96-31.03,1.26-40.67,4.85-14.51,20.14-47.74,29.41-59.32.76-.94,2.23-1.78,3.4-1.53,1.47.31,9.87,9.83,12.18,11.78,3.61,3.03,8.87,6.66,12.95,9.05,8.1,4.76,12.84.97,7.69,12.64-7.52,17.04-36.97,60.88-53.49,68.5-4.12,1.9-9.64,2.7-13.39-.46Z"/><path class="b" d="M407.7,544.31c.25.18,3.52,4.37,3.73,4.77,4.96,9.33,1.85,23.29-.7,33.14-.62,2.38-5.59,17.33-6.38,17.86-6.13,4.08-21.51-8.93-24.75-14.17-7.66-12.39-3.13-27.44,6.92-36.9,4.51-4.25,15.69-8.61,21.19-4.7Z"/><path class="b" d="M1157.99,444c.4,1.86,1.09,3.46,1.06,5.45-.73,41.28-23.99,93.57-56.03,120.06-13.47,11.14-29.88,16.22-29.05-8.05.94-27.53,27.5-67.29,46.01-86.99,10.94-11.63,23.45-23.75,38.01-30.47Z"/><path class="b" d="M709.37,341.62c-18.09-13.01-1.6-59.24,26.89-54.38,34.3,5.85,6.02,78.04-26.89,54.38Z"/></svg>